<svg width="642" height="200" viewBox="0 0 642 200" fill="none" xmlns="http://www.w3.org/2000/svg">
<path d="M180.861 96.6928C162.513 115.041 132.777 115.041 114.43 96.6928C96.0821 78.3449 96.0821 48.6085 114.43 30.2606C132.777 11.9127 162.513 11.9127 180.861 30.2606C199.209 48.6085 199.209 78.3449 180.861 96.6928ZM189.086 21.9453C166.219 -0.921862 128.981 -0.921862 106.115 21.9453C105.843 22.2164 105.663 22.4876 105.392 22.7587L52.7172 75.3389C51.1807 76.8755 51.1807 79.3158 52.7172 80.8523C54.2537 82.3889 56.6941 82.3889 58.2306 80.8523L81.8017 57.2854C83.3382 55.7489 85.7785 55.7489 87.315 57.2854C88.8515 58.8219 88.8515 61.2623 87.315 62.7988L42.6957 107.504C41.1592 109.041 41.1592 111.481 42.6957 113.018C44.2322 114.554 46.6725 114.554 48.209 113.018L83.9709 77.2603C85.5074 75.7237 87.9477 75.7237 89.4842 77.2603C91.0207 78.7968 91.0207 81.2371 89.4842 82.7737L32.3126 140.031C30.7761 141.568 30.7761 144.008 32.3126 145.544C33.8491 147.081 36.2894 147.081 37.8259 145.544L90.4784 92.8967C92.0149 91.3601 94.4552 91.3601 95.9917 92.8967C97.5282 94.4332 97.5282 96.8736 95.9917 98.4101L1.15238 193.335C-0.384126 194.871 -0.384126 197.312 1.15238 198.848C2.68888 200.385 5.12921 200.385 6.66572 198.848L100.149 105.37C101.686 103.833 104.126 103.833 105.663 105.37C107.199 106.906 107.199 109.347 105.663 110.883L33.5888 183.042C32.0523 184.579 32.0523 187.019 33.5888 188.556C35.1253 190.092 37.5657 190.092 39.1022 188.556L112.622 115.041C114.159 113.504 116.599 113.504 118.135 115.041C119.672 116.577 119.672 119.018 118.135 120.554L65.5734 173.202C64.0369 174.738 64.0369 177.179 65.5734 178.715C67.1099 180.252 69.5502 180.252 71.0867 178.715L128.349 121.458C129.885 119.921 132.326 119.921 133.862 121.458C135.399 122.995 135.399 125.435 133.862 126.971L98.0098 162.819C96.4733 164.356 96.4733 166.796 98.0098 168.333C99.5463 169.869 101.987 169.869 103.523 168.333L148.233 123.627C149.769 122.091 152.21 122.091 153.746 123.627C155.283 125.164 155.283 127.604 153.746 129.141L130.175 152.888C128.639 154.425 128.639 156.865 130.175 158.402C131.712 159.938 134.152 159.938 135.688 158.402L188.363 105.822C188.634 105.55 188.905 105.37 189.176 105.099C212.043 82.0506 212.043 44.9028 189.086 21.9453Z" fill="white"/>
<path d="M291.022 82.8434C291.022 78.7171 290.335 74.8553 288.959 71.258C287.69 67.6607 285.838 64.5396 283.405 61.8945C280.971 59.2494 278.009 57.1863 274.517 55.705C271.132 54.118 267.27 53.3245 262.932 53.3245C258.594 53.3245 254.626 54.118 251.029 55.705C247.432 57.1863 244.311 59.2494 241.666 61.8945C239.02 64.5396 236.957 67.6607 235.476 71.258C233.995 74.8553 233.254 78.7171 233.254 82.8434C233.254 86.9697 233.995 90.8315 235.476 94.4288C236.957 98.0261 239.02 101.147 241.666 103.792C244.311 106.437 247.432 108.553 251.029 110.14C254.626 111.622 258.594 112.362 262.932 112.362C267.27 112.362 271.132 111.622 274.517 110.14C278.009 108.553 280.971 106.437 283.405 103.792C285.838 101.147 287.69 98.0261 288.959 94.4288C290.335 90.8315 291.022 86.9697 291.022 82.8434ZM223.256 45.7067H233.73V58.0856H234.048C235.741 55.5463 237.751 53.3774 240.078 51.5787C242.406 49.7801 244.84 48.2989 247.379 47.135C249.918 45.9712 252.51 45.1248 255.155 44.5958C257.906 44.0668 260.498 43.8023 262.932 43.8023C268.751 43.8023 274.041 44.8074 278.802 46.8176C283.669 48.7221 287.848 51.42 291.34 54.9115C294.831 58.403 297.529 62.5293 299.434 67.2904C301.444 72.0515 302.449 77.2359 302.449 82.8434C302.449 88.4509 301.444 93.6353 299.434 98.3964C297.529 103.157 294.831 107.284 291.34 110.775C287.848 114.267 283.669 117.018 278.802 119.028C274.041 120.932 268.751 121.885 262.932 121.885C260.498 121.885 257.906 121.62 255.155 121.091C252.51 120.562 249.918 119.716 247.379 118.552C244.84 117.388 242.406 115.907 240.078 114.108C237.751 112.309 235.741 110.14 234.048 107.601H233.73V165.687H223.256V45.7067Z" fill="white"/>
<path d="M358.682 55.2289H337.257V99.0312C337.257 101.782 337.522 104.057 338.051 105.855C338.58 107.548 339.32 108.871 340.273 109.823C341.225 110.775 342.336 111.463 343.605 111.886C344.981 112.204 346.462 112.362 348.049 112.362C349.848 112.362 351.699 112.098 353.604 111.569C355.508 111.04 357.254 110.352 358.841 109.506L359.317 119.187C355.402 120.985 350.694 121.885 345.192 121.885C343.182 121.885 341.066 121.62 338.844 121.091C336.728 120.562 334.771 119.557 332.972 118.076C331.174 116.594 329.692 114.584 328.529 112.045C327.365 109.506 326.783 106.173 326.783 102.047V55.2289H311.071V45.7067H326.783V24.7578H337.257V45.7067H358.682V55.2289Z" fill="white"/>
<path d="M388.206 17.14C388.206 19.3619 387.413 21.2134 385.826 22.6946C384.239 24.0701 382.493 24.7578 380.588 24.7578C378.684 24.7578 376.938 24.0701 375.351 22.6946C373.764 21.2134 372.971 19.3619 372.971 17.14C372.971 14.9182 373.764 13.1195 375.351 11.7441C376.938 10.2628 378.684 9.52223 380.588 9.52223C382.493 9.52223 384.239 10.2628 385.826 11.7441C387.413 13.1195 388.206 14.9182 388.206 17.14ZM385.826 119.98H375.351V45.7067H385.826V119.98Z" fill="white"/>
<path d="M411.097 62.2119C411.097 59.461 410.991 56.7102 410.779 53.9593C410.674 51.2084 410.515 48.4576 410.303 45.7067H421.571V56.9747H421.889C424.428 52.6368 427.919 49.3569 432.363 47.135C436.913 44.9132 441.409 43.8023 445.853 43.8023C447.863 43.8023 449.979 44.0139 452.201 44.4371C454.529 44.8603 456.751 45.6538 458.867 46.8176C460.983 47.8757 462.94 49.4098 464.739 51.42C466.643 53.4303 468.23 56.0225 469.5 59.1965C471.616 54.4354 474.949 50.6794 479.498 47.9286C484.153 45.1777 488.967 43.8023 493.94 43.8023C503.462 43.8023 510.498 46.3415 515.048 51.42C519.597 56.3928 521.872 63.5344 521.872 72.8451V119.98H511.398V76.654C511.398 69.142 510.075 63.3757 507.43 59.3552C504.785 55.3347 499.865 53.3245 492.671 53.3245C488.756 53.3245 485.476 54.118 482.831 55.705C480.186 57.1863 478.017 59.1965 476.324 61.7358C474.737 64.2751 473.573 67.1846 472.833 70.4645C472.092 73.6386 471.722 76.9714 471.722 80.4628V119.98H461.247V76.654C461.247 69.142 459.925 63.3757 457.28 59.3552C454.634 55.3347 449.715 53.3245 442.52 53.3245C441.885 53.3245 440.404 53.5361 438.076 53.9593C435.855 54.3825 433.527 55.5463 431.093 57.4508C428.66 59.3552 426.438 62.2119 424.428 66.0208C422.523 69.8297 421.571 75.1198 421.571 81.8912V119.98H411.097V62.2119Z" fill="white"/>
<path d="M588.458 83.0021C585.813 83.0021 582.48 83.1608 578.46 83.4782C574.545 83.6898 570.736 84.3246 567.033 85.3827C563.436 86.3349 560.315 87.869 557.67 89.9851C555.13 92.1011 553.861 95.0107 553.861 98.7138C553.861 101.147 554.337 103.263 555.289 105.062C556.347 106.755 557.723 108.183 559.415 109.347C561.108 110.405 562.96 111.198 564.97 111.728C567.086 112.151 569.202 112.362 571.318 112.362C575.127 112.362 578.407 111.728 581.158 110.458C584.014 109.188 586.395 107.495 588.299 105.379C590.204 103.157 591.579 100.618 592.426 97.7616C593.378 94.7991 593.854 91.6779 593.854 88.398V83.0021H588.458ZM593.854 74.4321V72.5276C593.854 59.7255 587.506 53.3245 574.81 53.3245C566.134 53.3245 558.569 56.2341 552.115 62.0532L545.767 54.5941C552.75 47.3995 563.224 43.8023 577.19 43.8023C580.787 43.8023 584.226 44.3313 587.506 45.3893C590.892 46.4473 593.801 48.0873 596.235 50.3091C598.668 52.4252 600.625 55.1231 602.107 58.403C603.588 61.6829 604.329 65.5976 604.329 70.1471V103.316C604.329 106.173 604.434 109.188 604.646 112.362C604.963 115.431 605.281 117.97 605.598 119.98H595.441C595.124 118.181 594.859 116.224 594.648 114.108C594.542 111.992 594.489 109.929 594.489 107.919H594.172C591.103 112.891 587.453 116.489 583.221 118.71C579.095 120.827 574.016 121.885 567.985 121.885C564.705 121.885 561.531 121.408 558.463 120.456C555.395 119.61 552.644 118.287 550.211 116.489C547.883 114.584 545.978 112.309 544.497 109.664C543.122 106.913 542.434 103.739 542.434 100.142C542.434 94.1114 543.968 89.4032 547.036 86.0175C550.211 82.526 554.125 79.9338 558.781 78.241C563.542 76.5481 568.567 75.4901 573.857 75.0669C579.253 74.6437 584.173 74.4321 588.617 74.4321H593.854Z" fill="white"/>
<path d="M641.395 119.98H630.92V0H641.395V119.98Z" fill="white"/>
</svg>
